<svg xmlns="http://www.w3.org/2000/svg" data-name="Layer 1" viewBox="0 0 512 512"><path fill="#f66" d="M24.35352,283.03687c1.00183,1.68188,2.3872,3.2478,2.93945,5.06567q3.76281,12.386,7.11828,24.89429c6.16858,23.17529,14.10938,45.688,26.00745,66.58838,18.28723,32.12329,46.65186,49.44946,82.83643,54.354,21.67968,2.93848,42.28869-.959,61.15979-12.366,12.32092-7.44751,21.17981-18.0625,27.437-30.93774,7.03076-14.46729,4.196-33.31372-4.76563-46.30933-10.3435-14.999-28.14648-19.281-45.46679-18.16846-14.64075.94019-28.20142,7.83375-35.60108-8.70483a210.83146,210.83146,0,0,1-15.13586-48.07324c-1.85095-10.06885.82458-13.64673,11.23193-14.11157,26.36609-1.17774,58.91492,4.46508,75.81311-21.8064,7.41126-11.522,4.8888-24.76855-6.02368-33.09546-26.42041-20.1582-58.88122-6.79834-84.22827,7.36963a191.56549,191.56549,0,0,1-18.11035,9.18433c-7.15918,3.05566-11.16016,2.00561-16.17786-3.80713a123.67822,123.67822,0,0,1-22.6897-38.51075c-2.95691-8.07177-2.14379-12.905,4.98255-17.78515a192.07759,192.07759,0,0,1,28.05713-16.00147c22.51428-10.36279,46.2218-16.39135,71.19433-15.98217,21.59217.35376,42.08484,5.229,58.6565,19.7705,40.546,35.57886,27.453,94.26-6.28907,128.85987-3.82238,3.91943-7.57458,7.907-11.3966,11.82666-2.01526,2.06689-1.78064,3.80127.69385,5.16919,30.89953,17.08154,57.80859-5.4148,74.94519-30.39624,18.833-27.45435,29.71777-62.458,65.06042-73.314,114.04212-35.0293,151.91113,122.698,124.81616,202.01465-9.70215,28.40161-26.00049,51.741-52.00012,67.87085-42.69885,26.4895-100.90491,9.81128-117.39844-44.22437a135.97957,135.97957,0,0,1-4.11633-17.56176c-1.35815-8.22461-4.047-23.68457-.59436-40.96485,1.00183-5.01416,1.84717-6.89477,3.14343-7.14843,3.77124-.738,6.80139,13.18554,17.13648,24.19848a50.19748,50.19748,0,0,0,24.1864,14.40283c28.40344,6.99707,62.33862,1.54419,81.37768-22.39135,8.48951-10.67285,11.875-26.262,12.54041-39.48877,1.0874-21.61573-4.24512-54.625-26.97876-64.2395-38.51392-16.28785-66.12647,31.85278-90.918,51.93334-5.62671,4.55762-18.64868,11.90235-36.74084,15.51709a98.287,98.287,0,0,1-26.771,1.57886c.62512,2.00611,1.54175,4.9607,2.63489,8.53418,6.84253,22.36841,12.58984,39.5857,14.03161,48.87793,10.36353,66.79443-39.316,111.855-87.97961,117.8042-37.78027,4.6189-71.15527-6.40478-101.42566-28.81372C56.01123,448.34326,36.688,412.5979,28.32483,369.99683c-10.312-52.52832-11.94153-70.11768-5.97815-82.98853C23.13147,285.31445,23.853,283.94849,24.35352,283.03687Z"/><path fill="#ff4e4e" d="M203.58826 144.604c40.546 35.57886 27.453 94.26-6.28907 128.85987-3.82238 3.91943-7.57458 7.907-11.3966 11.82666-2.01526 2.06689-1.78064 3.80127.69385 5.16919 13.1455 7.26709 25.56811 7.36767 36.824 3.1643a51.88008 51.88008 0 0 1-6.824-3.1643c-2.47449-1.36792-2.70911-3.1023-.69385-5.16919 3.822-3.91968 7.57422-7.90723 11.3966-11.82666 33.74207-34.59986 46.83509-93.281 6.28907-128.85987-16.57166-14.5415-37.06433-19.41674-58.6565-19.7705a146.7651 146.7651 0 0 0-17.4834.772C174.386 127.4707 190.25684 132.90576 203.58826 144.604zM171.049 327.50049a67.9027 67.9027 0 0 0-18.12952-1.41358C157.98438 329.23755 164.23047 328.53271 171.049 327.50049zM109.56531 216.92017a191.56549 191.56549 0 0 0 18.11035-9.18433c11.495-6.42529 24.45373-12.67285 37.64783-15.71484-22.61975-6.38355-47.40186 4.39819-67.64783 15.71484q-2.98755 1.66992-6.015 3.28564c.5763.69678 1.134 1.40479 1.72681 2.09156C98.40515 218.92578 102.40613 219.97583 109.56531 216.92017zM277.90332 394.84888c-1.04077-6.303-2.853-16.86206-2.09375-29.22681-2.44971-8.16186-5.53613-17.87793-8.88989-28.84131-1.09314-3.57348-2.00977-6.52807-2.63489-8.53418a98.287 98.287 0 0 0 26.771-1.57886c18.09216-3.61474 31.11413-10.95947 36.74084-15.51709 17.66968-14.312 36.7738-42.87133 60.235-52.20581-38.15686-15.43383-65.5907 32.24439-90.235 52.20581-5.62671 4.55762-18.64868 11.90235-36.74084 15.51709a98.287 98.287 0 0 1-26.771 1.57886c.62512 2.00611 1.54175 4.9607 2.63489 8.53418 6.84253 22.36841 12.58984 39.5857 14.03161 48.87793 10.36353 66.79443-39.316 111.855-87.97961 117.8042-.55591.06787-1.10767.12109-1.66162.18237a133.93651 133.93651 0 0 0 31.66162-.18237c41.90466-5.12305 84.559-39.249 88.98291-91.27881A135.93245 135.93245 0 0 1 277.90332 394.84888zM30.44165 379.624c18.288 32.09815 46.6438 49.4126 82.81348 54.31519a96.46933 96.46933 0 0 0 28.40649-.23462c-35.42163-5.19434-63.22595-22.471-81.24292-54.11938-11.89807-20.9004-19.83887-43.41309-26.00745-66.58838q-3.3294-12.5094-7.11828-24.89429c-.55225-1.81787-1.93762-3.38379-2.93945-5.06567-.50049.91162-1.222 2.27758-2.00684 3.97143-5.96338 12.87085-4.33386 30.46021 5.97815 82.98853Q29.28228 374.87366 30.44165 379.624z"/><path fill="#ff4e4e" d="M372.45557 183.01807c78.01318 13.873 102.029 138.22265 78.96264 205.74609-9.70215 28.40161-26.00049 51.741-52.00012 67.87085a82.19461 82.19461 0 0 1-27.92126 10.93188A80.76 80.76 0 0 0 429.41809 456.635c25.99963-16.12988 42.298-39.46924 52.00012-67.87085C507.21606 313.24438 474.11938 166.645 372.45557 183.01807zM351.77527 385.33691a50.19748 50.19748 0 0 1-24.1864-14.40283c-10.33509-11.01294-13.36524-24.93652-17.13648-24.19848-1.29626.25366-2.1416 2.13427-3.14343 7.14843a94.12086 94.12086 0 0 0-1.48816 24.14673 49.139 49.139 0 0 0 15.95447 7.30615 95.973 95.973 0 0 0 38.0946 1.63086C357.13452 386.53613 354.43066 385.99121 351.77527 385.33691z"/><path fill="#f66" d="M227.723,46.38681a31.82009,31.82009,0,0,1,3.15049,3.71462,184.283,184.283,0,0,0,30.23284,37.08928c20.112,18.97364,44.15579,22.98654,70.39374,16.7101,18.37682-4.396,34.571-13.40537,49.8437-24.24442,5.52139-3.91854,10.948-8.0092,16.72124-11.5251,7.24821-4.4141,11.791-3.91074,18.00217,1.80687,10.25289,9.438,19.0009,20.0096,24.65155,32.96425,2.58021,5.91536,1.95346,11.01775-2.51491,15.41533a90.141,90.141,0,0,1-12.35538,10.72958c-36.36961,24.58146-76.446,35.16865-119.65516,26.17412-36.04769-7.50385-61.78551-28.92415-72.30676-65.50226-3.2522-11.3066-5.30677-22.96544-7.65772-34.51408-.552-2.71136-.08165-5.62993-.08165-8.45317Z"/><path fill="#ff4e4e" d="M440.71875,102.90234c-5.65063-12.95459-14.39868-23.52612-24.65161-32.96411-6.21118-5.71777-10.75391-6.22094-18.0022-1.80688-2.79712,1.70337-5.511,3.54468-8.19556,5.4331,8.60669,8.51514,15.911,18.01636,20.84937,29.33789,2.58008,5.91553,1.95337,11.01783-2.51489,15.41553a90.16321,90.16321,0,0,1-12.35547,10.72949c-23.33862,15.77393-48.20606,25.77271-74.4458,28.54493,37.43384,3.9121,72.3811-6.873,104.4458-28.54493a90.16321,90.16321,0,0,0,12.35547-10.72949C442.67212,113.92017,443.29883,108.81787,440.71875,102.90234Z"/><path fill="#f66" d="M347.38653,43.83777l-18.02369,17.9851a10.79027,10.79027,0,0,1-15.23662,0L296.10273,43.838a10.73459,10.73459,0,0,1,0-15.204l18.02368-17.9851a10.79028,10.79028,0,0,1,15.23663,0l18.02349,17.98491A10.73459,10.73459,0,0,1,347.38653,43.83777Z"/><path fill="#ff4e4e" d="M347.38647,28.63379,329.363,10.64893a10.78571,10.78571,0,0,0-15.11829-.10669c.03845.03711.0802.0686.11829.10669l18.02343,17.98486a10.73463,10.73463,0,0,1,0,15.2041L314.36279,61.82275c-.038.03809-.07983.06958-.11816.10694a10.78579,10.78579,0,0,0,15.11816-.10694l18.02368-17.98486A10.73463,10.73463,0,0,0,347.38647,28.63379Z"/><path fill="#313440" d="M220.26562,63.26074c1.832,9.251,3.72754,18.81836,6.41309,28.15723,10.917,37.95117,37.88379,62.42383,77.98633,70.77148a155.834,155.834,0,0,0,31.82617,3.33008c32.041,0,63.39649-10.249,93.55859-30.63379a97.54761,97.54761,0,0,0,13.415-11.59863c6.53809-6.43457,8.00391-14.87207,4.12793-23.75879-5.46289-12.52441-14.11328-24.13086-26.44629-35.4834-8.64843-7.96-16.9707-8.792-26.98144-2.69433-4.71387,2.87109-9.16211,6.07129-13.46484,9.166q-1.8457,1.32861-3.69727,2.64844c-17.05957,12.10742-32.07227,19.43652-47.248,23.06641-25.624,6.13183-46.39648,1.26562-63.502-14.8711A177.28182,177.28182,0,0,1,237.25,45.77832a23.60346,23.60346,0,0,0-3.00391-3.74023c-.2832-.30274-.56836-.60352-.83593-.916a7.506,7.506,0,0,0-7.38477-2.416l-1.57519.36524a7.50111,7.50111,0,0,0-5.80274,7.30566c0,.69532-.041,1.47461-.083,2.29981a29.4274,29.4274,0,0,0,.31446,7.64941Q219.585,59.78907,220.26562,63.26074ZM255.96,92.27051c20.78223,19.60547,46.78418,25.84472,77.28516,18.54883,17.10156-4.08985,33.76465-12.168,52.43847-25.42188q1.894-1.34327,3.77735-2.7041c4.25976-3.06543,8.2832-5.96,12.50586-8.53125,4.28613-2.61231,5.29785-2.50684,9.02148.91992,10.917,10.04785,18.17969,19.72168,22.85645,30.44434,1.58593,3.63672.90722,5.291-.90137,7.07031a84.62856,84.62856,0,0,1-11.29492,9.8623c-36.59961,24.73633-74.92969,33.16114-113.92676,25.04493-34.79785-7.24317-57.21387-27.50879-66.62695-60.23243-1.4336-4.98339-2.64551-10.13574-3.752-15.30566A190.7316,190.7316,0,0,0,255.96,92.27051Zm52.86914-25.5127a18.31549,18.31549,0,0,0,25.832-.001l18.02344-17.98536a18.23514,18.23514,0,0,0,0-25.82128L334.66016,4.96387a18.31669,18.31669,0,0,0-25.832.001L290.80469,22.9502a18.23514,18.23514,0,0,0,0,25.82128Zm-7.42871-33.19043L319.42285,15.583a3.29248,3.29248,0,0,1,4.64258-.001l18.02344,17.98535a3.2359,3.2359,0,0,1,0,4.58692L324.06641,56.13867a3.29307,3.29307,0,0,1-4.64258.001L301.40039,38.1543a3.2359,3.2359,0,0,1,0-4.58692ZM494.07715,293.13965c-6.249-37.69824-20.9082-70.0332-41.27832-91.04883-25.95215-26.77344-59.97949-34.68652-98.39942-22.88477-29.583,9.08594-43.30761,32.86524-56.581,55.86133-3.96,6.86133-8.05469,13.95606-12.46094,20.37891-9.19922,13.40918-19.42871,23.28418-29.584,28.55762-10.30078,5.34863-20.30762,6.00293-30.44532,1.94824q.84522-.88038,1.68848-1.76172,2.81689-2.94141,5.65137-5.86523c22.10449-22.666,34.63965-53.2129,33.53125-81.71192a79.60857,79.60857,0,0,0-27.66406-58.02148c-16.09082-14.12012-36.85547-21.19629-63.48047-21.63184-24.4668-.41894-49.55078,5.20606-74.45313,16.667a199.4394,199.4394,0,0,0-29.1582,16.627c-12.41016,8.49707-10.68164,18.65332-7.78809,26.55371A131.57281,131.57281,0,0,0,87.71,217.63965c7.24707,8.3916,14.66211,10.12793,24.79981,5.80273A200.09757,200.09757,0,0,0,131.335,213.9082c23.22949-12.98437,52.86035-25.624,76.01953-7.95508,7.90528,6.03321,9.54,14.876,4.26563,23.07618-11.707,18.20019-32.78223,18.18554-55.12012,18.165-4.874-.00684-9.9082-.00782-14.7207.207-5.19043.23144-11.668,1.15136-15.72461,6.248-4.04688,5.08594-3.48731,11.60254-2.54785,16.71094a219.36052,219.36052,0,0,0,15.666,49.78125c8.15137,18.21778,23.31641,15.89063,34.38574,14.1875,2.82227-.43359,5.73926-.88183,8.542-1.06152,12.4541-.79688,29.29492,1.14258,38.81152,14.9414,7.956,11.53809,9.68066,27.48243,4.19336,38.77344-5.99317,12.335-14.03027,21.42676-24.57031,27.79688-17.01856,10.28808-35.95313,14.10547-56.27344,11.35351-34.874-4.72754-60.88965-21.76269-77.3252-50.63379-10.28515-18.06738-18.31836-38.66015-25.27734-64.80566-2.13965-8.03906-4.49121-16.26367-7.19043-25.14844a19.90921,19.90921,0,0,0-2.89648-5.543c-.26661-.39062-.53809-.77929-.77539-1.17871a7.50031,7.50031,0,0,0-13.01856.23047c-.791,1.44141-1.543,2.93067-2.23633,4.42676-6.2041,13.38769-6.28906,27.92383,5.42383,87.58594C30.2832,418.5332,51.91016,454.26367,87.083,480.30273c28.11426,20.81153,58.10058,31.30274,89.36523,31.30274a143.48771,143.48771,0,0,0,17.4336-1.07324c28.89355-3.53223,56.77734-19.7002,74.59082-43.249,17.80078-23.53222,24.67871-52.28418,19.88964-83.14843-1.21484-7.83594-4.916-19.74512-10.03808-36.22852q-1.80909-5.81982-3.7959-12.26953a104.6906,104.6906,0,0,0,17.99707-1.98926c18.5459-3.70605,32.81934-11.23437,39.99219-17.04394,6.54-5.29786,12.99512-12.14454,19.82812-19.39356,19.31739-20.48926,39.29-41.668,63.44825-31.46,19.53613,8.2627,23.27832,39.68848,22.40917,56.95508-.73242,14.56445-4.71289,27.39258-10.91894,35.19629-11.64063,14.63379-37.92578,28.58984-73.71484,19.77832a42.442,42.442,0,0,1-20.51172-12.252c-4.58106-4.88281-7.59668-10.585-10.01953-15.167-3.14649-5.94922-6.71387-12.6875-14.02832-11.26074-6.71289,1.31543-8.17969,8.6543-9.05567,13.03906-3.65137,18.27442-.97265,34.458.46582,43.15235l.084.50488a144.07682,144.07682,0,0,0,4.34277,18.5293c8.24609,27.0166,26.55469,47.07129,51.55273,56.46972,24.94043,9.37891,53.7168,6.36328,76.97266-8.0625,26.13574-16.21386,44.17285-39.70605,55.14355-71.81836C497.82227,363.56934,499.84961,327.96777,494.07715,293.13965Zm-19.75684,92.82519c-9.80371,28.7002-25.78515,49.6084-48.85644,63.92188-19.32422,11.98926-43.16992,14.52051-63.78516,6.76855-20.541-7.72265-35.62891-24.34668-42.48535-46.80761a129.28889,129.28889,0,0,1-3.89063-16.59668l-.084-.50879c-1.10547-6.67871-2.80957-16.97949-1.80566-28.87793a66.86853,66.86853,0,0,0,8.707,11.82812,57.63679,57.63679,0,0,0,27.86133,16.55176c35.127,8.6543,70.07714-1.16211,89.042-25.00488,11.10742-13.96582,13.63965-33.42481,14.16015-43.78028,1.32325-26.28027-6.1455-60.78125-31.54687-71.52343-33.76758-14.28223-59.51465,13.03711-80.20508,34.98535-6.47852,6.87207-12.59766,13.3623-18.35547,18.02637-5.51855,4.46972-17.60058,10.8164-33.49023,13.99121a90.76689,90.76689,0,0,1-24.72656,1.456,7.49946,7.49946,0,0,0-7.73438,9.709c.62207,1.99707,1.53418,4.93847,2.623,8.49609,1.47851,4.83594,2.90722,9.43066,4.252,13.75781,4.74512,15.27246,8.49414,27.335,9.54,34.07715,5.24414,33.80273-6.36621,57.70215-17.03027,71.79981-15.41211,20.375-39.50489,34.35937-64.44825,37.40917-34.10058,4.167-65.51953-4.793-96.05273-27.39746-32.02832-23.71-51.76074-56.44238-60.32422-100.06836-5.18164-26.39648-8.06543-43.50976-8.98437-55.35644q.23438.86718.46289,1.73047c7.30078,27.4248,15.79687,49.15039,26.73828,68.36816,18.87011,33.14942,48.59375,52.68848,88.34668,58.07617,23.80175,3.22754,46.02343-1.27539,66.04687-13.3789,12.91016-7.80371,23.10547-19.26953,30.30176-34.07813,7.8623-16.17676,5.71777-37.81543-5.33594-53.8457-10.53613-15.28027-29.05273-22.87988-52.12207-21.39453-3.46289.22168-6.71387.72168-9.85742,1.2041-12.10352,1.86035-15.25586,1.57617-18.417-5.48731a204.37641,204.37641,0,0,1-14.60547-46.36718,15.722,15.722,0,0,1-.37305-4.58789,15.57637,15.57637,0,0,1,4.56348-.67481c4.46973-.19824,9.11816-.19726,14.03808-.1914,24.22852.03906,51.60743.042,67.74805-25.04981,9.44434-14.68262,6.24414-32.41308-7.78125-43.11621-13.54687-10.33594-29.82617-13.9082-48.3789-10.6084-17.001,3.01953-33.28711,11.374-44.0586,17.39453a182.14466,182.14466,0,0,1-17.39551,8.832c-4.05175,1.7295-4.61816,1.59375-7.55566-1.80859a116.61139,116.61139,0,0,1-21.3252-36.18945c-2.11621-5.7793-1.29589-6.63965,2.17774-9.01758a184.37977,184.37977,0,0,1,26.95508-15.377c23.165-10.66211,45.39453-15.64844,67.93554-15.2959,22.91895.375,40.52735,6.2334,53.833,17.90918a64.93577,64.93577,0,0,1,22.56934,47.3291c.93652,24.10059-10.28321,51.1748-29.28223,70.65625-1.92676,1.97656-3.835,3.96875-5.74414,5.96191q-2.8169,2.94141-5.65234,5.86621c-3.40235,3.49024-3.71778,6.93067-3.38184,9.20215.333,2.25977,1.61328,5.44141,5.81738,7.76563,28.71485,15.875,59.60743,3.94824,84.75879-32.71778,4.73633-6.90332,8.97949-14.25488,13.083-21.36425,12.36719-21.42774,24.04981-41.667,47.99414-49.02246,33.1416-10.18067,61.14453-3.792,83.22461,18.9873C481.916,253.68262,491.06055,336.96094,474.32031,385.96484Z"/></svg>